HIERARCHY
ROOT Hips
{
  OFFSET -564.517 92.7563 1370.58
  CHANNELS 6 Xposition Yposition Zposition Zrotation Xrotation Yrotation
  JOINT Spine
  {
    OFFSET -5.16951e-05 8 0.000156634
    CHANNELS 6 Xposition Yposition Zposition Zrotation Xrotation Yrotation
    JOINT Spine1
    {
      OFFSET -0.000515046 8 -0.000775552
      CHANNELS 6 Xposition Yposition Zposition Zrotation Xrotation Yrotation
      JOINT Spine2
      {
        OFFSET 0.000794378 8 0.000723488
        CHANNELS 6 Xposition Yposition Zposition Zrotation Xrotation Yrotation
        JOINT Spine3
        {
          OFFSET 0 8 0
          CHANNELS 6 Xposition Yposition Zposition Zrotation Xrotation Yrotation
          JOINT Neck
          {
            OFFSET -0.000144274 17.0003 -0.000267561
            CHANNELS 6 Xposition Yposition Zposition Zrotation Xrotation Yrotation
            JOINT Head
            {
              OFFSET 0.000312065 10.7999 0.000192166
              CHANNELS 6 Xposition Yposition Zposition Zrotation Xrotation Yrotation
              End Site
              {
                OFFSET 0 20.25 0
              }
            }
          }
          JOINT LeftShoulder
          {
            OFFSET 4.99995 17 -0.000371925
            CHANNELS 6 Xposition Yposition Zposition Zrotation Xrotation Yrotation
            JOINT LeftShoulder2
            {
              OFFSET 6.45 0 0
              CHANNELS 6 Xposition Yposition Zposition Zrotation Xrotation Yrotation
              JOINT LeftArm
              {
                OFFSET 6.44993 -0.000220447 0.000613662
                CHANNELS 6 Xposition Yposition Zposition Zrotation Xrotation Yrotation
                JOINT LeftForeArm
                {
                  OFFSET -0.0059724 -32.4105 -1.99049
                  CHANNELS 6 Xposition Yposition Zposition Zrotation Xrotation Yrotation
                  JOINT LeftHand
                  {
                    OFFSET 0.00274676 -25.6457 1.99402
                    CHANNELS 6 Xposition Yposition Zposition Zrotation Xrotation Yrotation
                    JOINT LeftHandThumb1
                    {
                      OFFSET -0.490599 -1.49093 2.63548
                      CHANNELS 6 Xposition Yposition Zposition Zrotation Xrotation Yrotation
                      JOINT LeftHandThumb2
                      {
                        OFFSET 0.000294124 -3.79829 3.7006
                        CHANNELS 6 Xposition Yposition Zposition Zrotation Xrotation Yrotation
                        JOINT LeftHandThumb3
                        {
                          OFFSET 3.21881e-05 -3.00022 2.69988
                          CHANNELS 6 Xposition Yposition Zposition Zrotation Xrotation Yrotation
                          End Site
                          {
                            OFFSET 0 -2.30059 1.80056
                          }
                        }
                      }
                    }
                    JOINT LeftHandIndex
                    {
                      OFFSET 0.000290692 -1.89976 1.6001
                      CHANNELS 6 Xposition Yposition Zposition Zrotation Xrotation Yrotation
                      JOINT LeftHandIndex1
                      {
                        OFFSET -0.00370036 -8.30349 1.90576
                        CHANNELS 6 Xposition Yposition Zposition Zrotation Xrotation Yrotation
                        JOINT LeftHandIndex2
                        {
                          OFFSET -0.000962401 -4.49967 0.00166471
                          CHANNELS 6 Xposition Yposition Zposition Zrotation Xrotation Yrotation
                          JOINT LeftHandIndex3
                          {
                            OFFSET 0.000927428 -3.39884 -0.00139946
                            CHANNELS 6 Xposition Yposition Zposition Zrotation Xrotation Yrotation
                            End Site
                            {
                              OFFSET -0.000275486 -2.60022 0.000714837
                            }
                          }
                        }
                      }
                    }
                    JOINT LeftHandMiddle
                    {
                      OFFSET -0.248174 -2.19907 0.396957
                      CHANNELS 6 Xposition Yposition Zposition Zrotation Xrotation Yrotation
                      JOINT LeftHandMiddle1
                      {
                        OFFSET -0.000100716 -8.29988 0.999836
                        CHANNELS 6 Xposition Yposition Zposition Zrotation Xrotation Yrotation
                        JOINT LeftHandMiddle2
                        {
                          OFFSET -0.00105409 -4.64995 0.00133581
                          CHANNELS 6 Xposition Yposition Zposition Zrotation Xrotation Yrotation
                          JOINT LeftHandMiddle3
                          {
                            OFFSET 0.000578705 -3.29999 0.00130378
                            CHANNELS 6 Xposition Yposition Zposition Zrotation Xrotation Yrotation
                            End Site
                            {
                              OFFSET 0.00136072 -2.70034 0.00170006
                            }
                          }
                        }
                      }
                    }
                    JOINT LeftHandRing
                    {
                      OFFSET -0.498861 -2.14924 -0.800355
                      CHANNELS 6 Xposition Yposition Zposition Zrotation Xrotation Yrotation
                      JOINT LeftHandRing1
                      {
                        OFFSET -0.00436775 -7.74957 -0.2026
                        CHANNELS 6 Xposition Yposition Zposition Zrotation Xrotation Yrotation
                        JOINT LeftHandRing2
                        {
                          OFFSET -0.00248017 -3.80636 0.00360817
                          CHANNELS 6 Xposition Yposition Zposition Zrotation Xrotation Yrotation
                          JOINT LeftHandRing3
                          {
                            OFFSET 7.59492e-05 -3.39976 0.000194208
                            CHANNELS 6 Xposition Yposition Zposition Zrotation Xrotation Yrotation
                            End Site
                            {
                              OFFSET -0.000283362 -2.60041 0.00111654
                            }
                          }
                        }
                      }
                    }
                    JOINT LeftHandPinky
                    {
                      OFFSET -0.74954 -1.74983 -1.85093
                      CHANNELS 6 Xposition Yposition Zposition Zrotation Xrotation Yrotation
                      JOINT LeftHandPinky1
                      {
                        OFFSET 3.95341e-05 -7.15086 -1.00043
                        CHANNELS 6 Xposition Yposition Zposition Zrotation Xrotation Yrotation
                        JOINT LeftHandPinky2
                        {
                          OFFSET -0.00157697 -2.99995 -0.00189633
                          CHANNELS 6 Xposition Yposition Zposition Zrotation Xrotation Yrotation
                          JOINT LeftHandPinky3
                          {
                            OFFSET -0.000470089 -2.34666 -0.00515226
                            CHANNELS 6 Xposition Yposition Zposition Zrotation Xrotation Yrotation
                            End Site
                            {
                              OFFSET -0.000988618 -2.10006 0.000575151
                            }
                          }
                        }
                      }
                    }
                  }
                }
              }
            }
          }
          JOINT RightShoulder
          {
            OFFSET -5.00019 17 -0.000217544
            CHANNELS 6 Xposition Yposition Zposition Zrotation Xrotation Yrotation
            JOINT RightShoulder2
            {
              OFFSET -6.45 0 0
              CHANNELS 6 Xposition Yposition Zposition Zrotation Xrotation Yrotation
              JOINT RightArm
              {
                OFFSET -6.44996 0.000104275 -0.000143997
                CHANNELS 6 Xposition Yposition Zposition Zrotation Xrotation Yrotation
                JOINT RightForeArm
                {
                  OFFSET -0.000907374 -32.3984 -1.99955
                  CHANNELS 6 Xposition Yposition Zposition Zrotation Xrotation Yrotation
                  JOINT RightHand
                  {
                    OFFSET 0.00115413 -25.6484 2.00389
                    CHANNELS 6 Xposition Yposition Zposition Zrotation Xrotation Yrotation
                    JOINT RightHandThumb1
                    {
                      OFFSET 0.499354 -1.50186 2.65043
                      CHANNELS 6 Xposition Yposition Zposition Zrotation Xrotation Yrotation
                      JOINT RightHandThumb2
                      {
                        OFFSET 0.000162626 -3.80008 3.69994
                        CHANNELS 6 Xposition Yposition Zposition Zrotation Xrotation Yrotation
                        JOINT RightHandThumb3
                        {
                          OFFSET 0.0094854 -2.99832 2.68606
                          CHANNELS 6 Xposition Yposition Zposition Zrotation Xrotation Yrotation
                          End Site
                          {
                            OFFSET -0.0110655 -2.28631 1.80819
                          }
                        }
                      }
                    }
                    JOINT RightHandIndex
                    {
                      OFFSET -0.000554638 -1.90012 1.60012
                      CHANNELS 6 Xposition Yposition Zposition Zrotation Xrotation Yrotation
                      JOINT RightHandIndex1
                      {
                        OFFSET -0.00147846 -8.30372 1.90086
                        CHANNELS 6 Xposition Yposition Zposition Zrotation Xrotation Yrotation
                        JOINT RightHandIndex2
                        {
                          OFFSET -0.000139712 -4.50015 -0.000626816
                          CHANNELS 6 Xposition Yposition Zposition Zrotation Xrotation Yrotation
                          JOINT RightHandIndex3
                          {
                            OFFSET 0.000279728 -3.40111 -0.00128873
                            CHANNELS 6 Xposition Yposition Zposition Zrotation Xrotation Yrotation
                            End Site
                            {
                              OFFSET -0.0012389 -2.60026 0.000256272
                            }
                          }
                        }
                      }
                    }
                    JOINT RightHandMiddle
                    {
                      OFFSET 0.24992 -2.19942 0.400641
                      CHANNELS 6 Xposition Yposition Zposition Zrotation Xrotation Yrotation
                      JOINT RightHandMiddle1
                      {
                        OFFSET 0.00199627 -8.30035 0.99764
                        CHANNELS 6 Xposition Yposition Zposition Zrotation Xrotation Yrotation
                        JOINT RightHandMiddle2
                        {
                          OFFSET 4.63764e-05 -4.65006 0.000291556
                          CHANNELS 6 Xposition Yposition Zposition Zrotation Xrotation Yrotation
                          JOINT RightHandMiddle3
                          {
                            OFFSET 0.00481064 -3.30772 -0.00186509
                            CHANNELS 6 Xposition Yposition Zposition Zrotation Xrotation Yrotation
                            End Site
                            {
                              OFFSET -0.0114476 -2.6986 0.00731683
                            }
                          }
                        }
                      }
                    }
                    JOINT RightHandRing
                    {
                      OFFSET 0.497974 -2.14891 -0.798994
                      CHANNELS 6 Xposition Yposition Zposition Zrotation Xrotation Yrotation
                      JOINT RightHandRing1
                      {
                        OFFSET -0.00129126 -7.74964 -0.199024
                        CHANNELS 6 Xposition Yposition Zposition Zrotation Xrotation Yrotation
                        JOINT RightHandRing2
                        {
                          OFFSET -0.00156848 -3.79995 0.000415425
                          CHANNELS 6 Xposition Yposition Zposition Zrotation Xrotation Yrotation
                          JOINT RightHandRing3
                          {
                            OFFSET -0.000206816 -3.3997 0.000252864
                            CHANNELS 6 Xposition Yposition Zposition Zrotation Xrotation Yrotation
                            End Site
                            {
                              OFFSET -0.00317476 -2.60144 0.00123092
                            }
                          }
                        }
                      }
                    }
                    JOINT RightHandPinky
                    {
                      OFFSET 0.748158 -1.75411 -1.84913
                      CHANNELS 6 Xposition Yposition Zposition Zrotation Xrotation Yrotation
                      JOINT RightHandPinky1
                      {
                        OFFSET -0.00263234 -7.15694 -0.998814
                        CHANNELS 6 Xposition Yposition Zposition Zrotation Xrotation Yrotation
                        JOINT RightHandPinky2
                        {
                          OFFSET -0.000293539 -3.00051 -0.000418473
                          CHANNELS 6 Xposition Yposition Zposition Zrotation Xrotation Yrotation
                          JOINT RightHandPinky3
                          {
                            OFFSET 0.00104203 -2.35119 -0.00116512
                            CHANNELS 6 Xposition Yposition Zposition Zrotation Xrotation Yrotation
                            End Site
                            {
                              OFFSET 0.00583479 -2.0877 0.00365287
                            }
                          }
                        }
                      }
                    }
                  }
                }
              }
            }
          }
        }
      }
    }
  }
  JOINT LeftUpLeg
  {
    OFFSET 8.00005 0 -2.05333e-05
    CHANNELS 6 Xposition Yposition Zposition Zrotation Xrotation Yrotation
    JOINT LeftLeg
    {
      OFFSET -0.000438244 -45.0001 -0.999573
      CHANNELS 6 Xposition Yposition Zposition Zrotation Xrotation Yrotation
      JOINT LeftFoot
      {
        OFFSET -0.000577299 -40.9998 -2.00014
        CHANNELS 6 Xposition Yposition Zposition Zrotation Xrotation Yrotation
        JOINT LeftToeBase
        {
          OFFSET 0.000105803 -7.49995 12.5
          CHANNELS 6 Xposition Yposition Zposition Zrotation Xrotation Yrotation
          JOINT LeftFootToe
          {
            OFFSET 0 0 4
            CHANNELS 6 Xposition Yposition Zposition Zrotation Xrotation Yrotation
            End Site
            {
              OFFSET 0 0 0
            }
          }
        }
      }
    }
  }
  JOINT RightUpLeg
  {
    OFFSET -8.00005 0 2.05333e-05
    CHANNELS 6 Xposition Yposition Zposition Zrotation Xrotation Yrotation
    JOINT RightLeg
    {
      OFFSET -0.000142159 -45.0001 -1.00022
      CHANNELS 6 Xposition Yposition Zposition Zrotation Xrotation Yrotation
      JOINT RightFoot
      {
        OFFSET 8.25402e-05 -41.0001 -2.00029
        CHANNELS 6 Xposition Yposition Zposition Zrotation Xrotation Yrotation
        JOINT RightToeBase
        {
          OFFSET -0.000221735 -7.50012 12.4999
          CHANNELS 6 Xposition Yposition Zposition Zrotation Xrotation Yrotation
          JOINT RightFootToe
          {
            OFFSET 0 0 4
            CHANNELS 6 Xposition Yposition Zposition Zrotation Xrotation Yrotation
            End Site
            {
              OFFSET 0 0 0
            }
          }
        }
      }
    }
  }
}
MOTION
Frames:	3
Frame Time:	0.0111111
-552.758 91.193 1364.71 1.84984 5.69503 -111.005 0 8 1.13687e-13 7.4644 -0.269804 8.60839 0 8 0 -0.0562804 1.55839 3.36954 0 8 2.84217e-13 -0.0147239 0.778441 1.685 0 8 0 -0.0154122 0.778914 1.68398 0 17 -1.13687e-13 3.69137 2.85386 7.58985 4.54747e-13 10.8 -1.13687e-13 0.601469 -6.05671 18.2454 5 17 1.13687e-13 5.82773 4.4636 -1.91788 6.45 0 0 -0.676427 -0.587984 0.610881 6.45 -5.68434e-14 -5.68434e-14 19.3315 -22.2937 48.8208 1.13687e-13 -32.4 -2 -77.4559 -15.1212 -52.8855 -2.27374e-13 -25.65 2 32.1713 9.90057 14.6815 -0.5 -1.5 2.65 -12.7361 -26.2754 1.56274 2.27374e-13 -3.8 3.7 17.5966 29.8667 2.92033 0 -3 2.7 0.013973 1.46169 0.0101882 4.54747e-13 -1.9 1.6 -2.95692e-15 -9.10993e-15 -1.59028e-15 0 -8.3 1.9 -3.78097 14.0979 0.691282 2.27374e-13 -4.5 -1.13687e-13 -44.2335 -0.00865751 -0.00829886 0 -3.4 1.13687e-13 -30.7518 -0.000361266 -0.0119532 -0.25 -2.2 0.4 -2.95692e-15 -9.10993e-15 -1.59028e-15 2.27374e-13 -8.3 1 -36.9584 31.1712 12.8939 0 -4.65 0 -87.909 0.0254172 0.0080242 0 -3.3 2.27374e-13 -89.9989 0.000413339 -0.000138745 -0.5 -2.15 -0.8 -2.95692e-15 -9.10993e-15 -1.59028e-15 0 -7.75 -0.2 -42.1229 25.611 12.4995 2.27374e-13 -3.8 0 -10.5686 0.00846201 0.00629636 0 -3.4 -2.27374e-13 -65.1049 0.0125022 -0.0807184 -0.75 -1.75 -1.85 -2.95692e-15 -9.10993e-15 -1.59028e-15 0 -7.15 -1 -65.8321 18.4119 18.1549 0 -3 1.13687e-13 -0.0928606 -0.331728 0.0980163 0 -2.35 0 -0.000293011 -0.243405 -0.0522634 -5 17 -1.13687e-13 6.72835 6.92168 3.43597 -6.45 -8.52651e-14 -2.27374e-13 -0.992196 0.00794155 -2.22722 -6.45 5.68434e-14 -5.68434e-14 -49.855 9.27377 -7.97133 0 -32.4 -2 99.7376 -55.9025 86.0579 1.13687e-13 -25.65 2 -22.401 19.5265 35.8766 0.5 -1.5 2.65 -165.315 78.1592 -18.1718 -5.68434e-14 -3.8 3.7 -23.8597 42.6916 2.85911 0 -3 2.7 0.0496588 38.8489 -0.0442443 1.7053e-13 -1.9 1.6 -6.74695e-06 5.22341e-06 -1.54678e-06 1.13687e-13 -8.3 1.9 6.83994 5.02062 -0.331492 -5.68434e-14 -4.5 2.27374e-13 11.7401 2.6453 0.284363 5.11591e-13 -3.4 0 10.5532 0.00479892 0.0352396 0.25 -2.2 0.4 -6.74695e-06 5.22341e-06 -1.54678e-06 -1.13687e-13 -8.3 1 16.4329 13.7614 -2.35495 0 -4.65 0 32.2389 15.5544 0.888077 -1.13687e-13 -3.3 -2.27374e-13 27.2839 -0.0306516 -0.0013292 0.5 -2.15 -0.8 -6.74695e-06 5.22341e-06 -1.54678e-06 1.7053e-13 -7.75 -0.2 34.8235 14.5039 -5.9423 3.97904e-13 -3.8 0 21.6037 23.9774 4.97077 5.68434e-14 -3.4 2.27374e-13 30.8432 0.482133 -0.00378373 0.75 -1.75 -1.85 -6.74695e-06 5.22341e-06 -1.54678e-06 0 -7.15 -1 37.4794 10.5532 -5.46891 -1.13687e-13 -3 -2.27374e-13 33.0797 28.496 4.94665 5.68434e-14 -2.35 0 36.1473 0.0239933 0.0659033 8 0 1.13687e-13 28.62 -22.2645 21.9937 0 -45 -1 -20.2911 8.68393 8.07452 0 -41 -2 10.1332 13.15 2.36385 -2.27374e-13 -7.5 12.5 -5.92134e-05 1.96012e-05 0.01394 2.27374e-13 0 4 0.00537819 -8.20778 -2.55373 -8 0 0 -3.49176 -11.5874 28.0863 0 -45 -1 -1.34685 -1.30214 1.01116 2.27374e-13 -41 -2 22.2449 7.10159 -30.2932 -2.27374e-13 -7.5 12.5 1.10971e-05 0.843054 -3.34154e-05 0 0 4 0.106923 0.277987 34.658 
-552.758 91.1953 1364.71 1.84815 5.69609 -110.982 2.27374e-13 8 1.13687e-13 7.46421 -0.268594 8.60027 0 8 -5.68434e-14 -0.0568372 1.55549 3.3635 2.27374e-13 8 -5.68434e-14 -0.0147868 0.777262 1.68194 -2.27374e-13 8 1.7053e-13 -0.0154534 0.777527 1.68089 0 17 -5.68434e-14 3.68807 2.84245 7.59377 2.27374e-13 10.8 -1.13687e-13 0.598798 -6.08458 18.2527 5 17 -5.68434e-14 5.82765 4.47026 -1.91695 6.45 0 0 -0.676255 -0.587879 0.611155 6.45 -2.84217e-14 0 19.3209 -22.2642 48.8776 2.27374e-13 -32.4 -2 -77.2523 -15.1398 -52.6186 -4.54747e-13 -25.65 2 30.7095 10.0927 14.7828 -0.5 -1.5 2.65 -12.439 -26.2743 1.51899 -2.27374e-13 -3.8 3.7 17.4911 29.7676 2.95072 0 -3 2.7 0.0145553 1.45303 0.0098258 4.54747e-13 -1.9 1.6 -2.98177e-15 -2.28602e-15 1.59028e-15 2.27374e-13 -8.3 1.9 -3.56569 13.604 0.635172 2.27374e-13 -4.5 0 -42.1104 -0.00463129 -0.00846638 0 -3.4 0 -29.4137 0.00153706 -0.0119004 -0.25 -2.2 0.4 -2.98177e-15 -2.28602e-15 1.59028e-15 4.54747e-13 -8.3 1 -36.0626 31.1486 12.5577 0 -4.65 1.13687e-13 -87.9884 0.0250878 0.00802543 0 -3.3 1.13687e-13 -89.9989 0.000413339 -0.000138745 -0.5 -2.15 -0.8 -2.98177e-15 -2.28602e-15 1.59028e-15 -2.27374e-13 -7.75 -0.2 -41.1063 25.5496 12.1266 0 -3.8 -1.13687e-13 -10.7032 0.00810589 0.00659351 0 -3.4 -2.27374e-13 -65.2062 0.0124374 -0.0816827 -0.75 -1.75 -1.85 -2.98177e-15 -2.28602e-15 1.59028e-15 -2.27374e-13 -7.15 -1 -64.7758 18.6247 17.8389 0 -3 0 -0.0928324 -0.331252 0.0988591 0 -2.35 0 -0.000295421 -0.243057 -0.0529064 -5 17 -1.7053e-13 6.72046 6.92203 3.44656 -6.45 -5.68434e-14 -2.27374e-13 -0.989098 0.00811084 -2.22697 -6.45 0 -1.13687e-13 -49.8152 9.27124 -7.94587 -1.13687e-13 -32.4 -2 99.5518 -55.82 85.7079 0 -25.65 2 -22.3367 19.5312 35.6824 0.5 -1.5 2.65 -163.797 78.1231 -19.9619 -1.13687e-13 -3.8 3.7 -23.8597 42.6916 2.85908 0 -3 2.7 0.0496447 38.8489 -0.0442221 5.68434e-14 -1.9 1.6 -6.74695e-06 5.22341e-06 -1.54678e-06 0 -8.3 1.9 6.67907 5.02905 -0.323794 0 -4.5 0 11.9126 2.68383 0.284552 3.97904e-13 -3.4 2.27374e-13 10.6911 0.00536052 0.0353225 0.25 -2.2 0.4 -6.74695e-06 5.22341e-06 -1.54678e-06 -1.13687e-13 -8.3 1 16.083 13.7844 -2.30822 0 -4.65 0 32.4802 15.7158 0.905957 -5.68434e-14 -3.3 -2.27374e-13 27.4714 -0.0317309 -0.00162433 0.5 -2.15 -0.8 -6.74695e-06 5.22341e-06 -1.54678e-06 -5.68434e-14 -7.75 -0.2 34.441 14.5995 -5.89929 1.7053e-13 -3.8 0 21.6313 24.0422 5.0025 5.68434e-14 -3.4 2.27374e-13 30.9072 0.482178 -0.00374389 0.75 -1.75 -1.85 -6.74695e-06 5.22341e-06 -1.54678e-06 0 -7.15 -1 37.0504 10.5854 -5.40111 -5.68434e-14 -3 0 33.1399 28.6253 4.99771 0 -2.35 0 36.2651 0.0242091 0.067473 8 0 1.13687e-13 28.6 -22.2608 22.0026 -2.27374e-13 -45 -1 -20.2738 8.66056 8.06609 0 -41 -2 10.1379 13.1433 2.33618 -2.27374e-13 -7.5 12.5 -5.92134e-05 1.96012e-05 0.01394 0 0 4 -0.0065925 -8.18814 -2.5538 -8 0 0 -3.49583 -11.5888 28.0884 2.27374e-13 -45 -1 -1.34098 -1.28914 1.01722 0 -41 -2 22.2428 7.08253 -30.3168 0 -7.5 12.5 1.10976e-05 0.843861 -3.34154e-05 0 0 4 0.110391 0.272615 34.658 
-552.757 91.1969 1364.71 1.84628 5.6972 -110.957 2.27374e-13 8 0 7.46399 -0.267778 8.59251 0 8 -5.68434e-14 -0.0571757 1.55226 3.35769 -2.27374e-13 8 2.27374e-13 -0.0148645 0.776082 1.679 2.27374e-13 8 2.27374e-13 -0.0154947 0.776127 1.678 0 17 -5.68434e-14 3.68297 2.83134 7.59806 2.27374e-13 10.8 0 0.595875 -6.11211 18.258 5 17 1.13687e-13 5.8285 4.47955 -1.9166 6.45 0 1.13687e-13 -0.676085 -0.587777 0.611412 6.45 -5.68434e-14 0 19.3096 -22.2411 48.9341 0 -32.4 -2 -77.0415 -15.1564 -52.3421 -2.27374e-13 -25.65 2 29.2282 10.3111 14.9005 -0.5 -1.5 2.65 -12.1558 -26.2798 1.48737 -2.27374e-13 -3.8 3.7 17.3823 29.6647 2.98183 0 -3 2.7 0.0151113 1.48883 0.00942136 2.27374e-13 -1.9 1.6 -1.59028e-15 -7.15625e-15 -0 0 -8.3 1.9 -3.36294 13.1189 0.58186 2.27374e-13 -4.5 1.13687e-13 -39.8762 0.00114681 -0.0086357 0 -3.4 -1.13687e-13 -28.0261 0.00357979 -0.0118493 -0.25 -2.2 0.4 -1.59028e-15 -7.15625e-15 -0 4.54747e-13 -8.3 1 -35.1834 31.1191 12.2282 0 -4.65 0 -88.052 0.0247585 0.00802643 0 -3.3 1.13687e-13 -89.9989 0.000413339 -0.000138745 -0.5 -2.15 -0.8 -1.59028e-15 -7.15625e-15 -0 0 -7.75 -0.2 -40.0996 25.4797 11.7594 0 -3.8 0 -10.8476 0.00771486 0.00687265 0 -3.4 -2.27374e-13 -65.3152 0.012374 -0.082645 -0.75 -1.75 -1.85 -1.59028e-15 -7.15625e-15 -0 -2.27374e-13 -7.15 -1 -63.692 18.8322 17.5135 -2.27374e-13 -3 0 -0.0928053 -0.330775 0.0997042 -1.13687e-13 -2.35 0 -0.000297859 -0.242708 -0.0535583 -5 17 -5.68434e-14 6.71503 6.92256 3.45521 -6.45 -8.52651e-14 -1.13687e-13 -0.985865 0.00825164 -2.22677 -6.45 2.84217e-14 0 -49.7717 9.27129 -7.9193 0 -32.4 -2 99.3284 -55.7291 85.3034 1.13687e-13 -25.65 2 -22.2162 19.5596 35.3995 0.5 -1.5 2.65 -161.912 78.0583 -22.2024 -1.13687e-13 -3.8 3.7 -23.8597 42.6916 2.85905 -1.13687e-13 -3 2.7 0.0496307 38.8489 -0.0441998 -5.68434e-14 -1.9 1.6 -6.74695e-06 5.22341e-06 -1.54678e-06 5.68434e-14 -8.3 1.9 6.51222 5.04938 -0.316455 0 -4.5 2.27374e-13 11.944 2.69054 0.2847 4.54747e-13 -3.4 0 10.7151 0.00594041 0.0354053 0.25 -2.2 0.4 -6.74695e-06 5.22341e-06 -1.54678e-06 -5.68434e-14 -8.3 1 15.7324 13.8099 -2.26218 -5.68434e-14 -4.65 -2.27374e-13 32.5699 15.778 0.912531 -5.68434e-14 -3.3 0 27.5415 -0.0328106 -0.00191188 0.5 -2.15 -0.8 -6.74695e-06 5.22341e-06 -1.54678e-06 0 -7.75 -0.2 34.0345 14.6914 -5.85051 1.13687e-13 -3.8 0 21.6221 24.0282 4.99874 5.68434e-14 -3.4 0 30.8928 0.482222 -0.00370333 0.75 -1.75 -1.85 -6.74695e-06 5.22341e-06 -1.54678e-06 1.13687e-13 -7.15 -1 36.6191 10.5921 -5.32373 -5.68434e-14 -3 -2.27374e-13 33.1592 28.668 5.01493 0 -2.35 0 36.3041 0.0244248 0.0690312 8 -2.84217e-14 1.13687e-13 28.5804 -22.2586 22.0119 0 -45 -1 -20.2581 8.63956 8.05762 -2.27374e-13 -41 -2 10.1439 13.1313 2.3084 0 -7.5 12.5 -5.92134e-05 1.96012e-05 0.01394 0 0 4 -0.0204462 -8.16526 -2.55384 -8 0 -1.13687e-13 -3.50074 -11.5907 28.0907 0 -45 -1 -1.33429 -1.27595 1.02124 0 -41 -2 22.2402 7.06393 -30.3403 0 -7.5 12.5 1.1098e-05 0.844666 -3.34154e-05 -2.27374e-13 -2.84217e-14 4 0.11327 0.268247 34.658 
